#!OML:ASF F:\VICON\USERDATA\INSTALL\rory3\rory3.ASF
:FULLY-SPECIFIED
:DEGREES
62
root 0.26201054692863235 17.59275486159663 25.578976210357194 0.6420338737871059 4.340656655352201 -2.231964026737695
lfemur -19.443909553638925 -1.2902132886821174 -22.98231250498894
ltibia 43.60292853081925
lfoot 0.06095757604899976 -10.580726054071441
ltoes -6.52769666827535
rfemur -14.462686107093464 1.6937831530858285 26.623424244939986
rtibia 55.34500194194723
rfoot 4.236715070303819 -7.214422669336141
rtoes -4.599010165147945
lowerback 13.773608240356406 1.1914581260274448 0.8423230047530017
upperback -0.5962140648080121 2.9196908401044896 1.053345530817767
thorax -8.140195049841662 1.2228853565328586 0.29780555008372667
lowerneck -18.292411724764627 -4.715274892705922 -2.3058427101170675
upperneck 13.471830846332542 -6.283940527190415 3.631669496158177
head 7.395353971609202 -2.9618548159551437 0.7309742648007161
lclavicle 3.0724827264545893e-16 -4.3067221206564905e-16
lhumerus -45.56416313660132 -14.480959024483962 98.05454295151185
lradius 108.07962238176769
lwrist 32.349022455074305
lhand -25.6484653677874 2.6507863641287956
lfingers 7.125020000000001
lthumb 0.4132201200757912 32.41312941008748
rclavicle 3.0728743657241976e-16 -4.3064985682852227e-16
rhumerus -39.07199019002609 11.000224992936987 -96.48525573049021
rradius 102.06971782642322
rwrist -19.35838970371311
rhand -18.476536430444988 37.60866982991702
rfingers 7.125020000000001
rthumb 7.921333890160366 7.704494668283449
63
root 0.23178633258661915 17.394900935313316 25.149678629368992 0.4684489417623934 4.4358873102687015 -1.7689236067793883
lfemur -18.876120791883366 -1.4994523859419675 -23.79941262098543
ltibia 43.719892282233246
lfoot -0.42666239931402306 -10.151217509384612
ltoes -7.24064557759142
rfemur -15.487130046237773 1.5567188016304574 26.06170403879601
rtibia 56.44977875012469
rfoot 4.579353694081916 -6.894862568487853
rtoes -4.762090961953887
lowerback 14.038362732656859 1.023966255602575 0.11877185955130165
upperback -0.48406968417072116 2.4795435136632564 0.8483119022358956
thorax -8.160483553929287 1.081830557173045 0.5424218781455754
lowerneck -18.47739186191838 -4.660016349692114 -2.3207686291012846
upperneck 13.470446377811061 -6.196382122779683 3.6713895192720774
head 7.4055813312049485 -2.921534360036163 0.7576669300581762
lclavicle 3.0724827264545893e-16 -4.3067221206564905e-16
lhumerus -43.95503965584094 -15.402854618848462 97.95472584107821
lradius 108.41402628153182
lwrist 32.39429686150006
lhand -25.720213488322813 2.692307439611304
lfingers 7.125020000000001
lthumb 0.30435695762094966 32.41374976131159
rclavicle 3.0728743657241976e-16 -4.3064985682852227e-16
rhumerus -39.77175831816208 10.665843058866306 -96.76550749882821
rradius 102.22820145910546
rwrist -19.287374940713967
rhand -18.496312361527767 37.59157201931651
rfingers 7.125020000000001
rthumb 7.816973436093689 7.580794439126276
64
root 0.20936251454816426 17.221949652524625 25.004880511425362 0.48141230194516504 4.346452530868205 -1.264976137064171
lfemur -16.382740661459174 -1.3808099024976204 -23.95985533942175
ltibia 43.26725292984225
lfoot -0.6786113912675549 -9.67874289149381
ltoes -8.275544808338664
rfemur -20.326656514432077 1.300863945900236 24.835874186499755
rtibia 57.080797371233736
rfoot 4.3020145833064936 -6.699906453676691
rtoes -4.803824877650372
lowerback 14.23613597883243 0.8438940024808901 -0.47488261326244485
upperback -0.37431963419362113 2.0744872490644095 0.6450230136207837
thorax -8.183269381863909 0.9856471213457816 0.8834156568673197
lowerneck -18.649972930469662 -4.591483001257403 -2.3276662192124533
upperneck 13.49269736266839 -6.053367161882673 3.678718585507739
head 7.414416273336296 -2.866476562717986 0.7828415081275624
lclavicle 3.0724827264545893e-16 -4.3067221206564905e-16
lhumerus -42.74306384072313 -16.004921292249932 97.88512043097765
lradius 108.72407678373564
lwrist 32.247811616269395
lhand -25.749237042480498 2.806096641720219
lfingers 7.125020000000001
lthumb 0.30860604070230474 32.525689465424804
rclavicle 3.0728743657241976e-16 -4.3064985682852227e-16
rhumerus -40.88841238578478 10.150555677840522 -97.06537566207898
rradius 102.34972824951122
rwrist -19.22867185130131
rhand -18.536100316824573 37.52041050321494
rfingers 7.125020000000001
rthumb 7.841753079035385 7.610438735686692
65
root 0.2012742817410507 17.103786753599156 25.477387931982932 0.6674494139736225 4.227619273898828 -0.757160847036674
lfemur -15.378408206222478 -1.6298322325711947 -24.716183504608754
ltibia 42.53316124735708
lfoot 0.027642221028774783 -9.222420597417589
ltoes -9.725979857834105
rfemur -20.63536367843009 1.499633019211213 25.161053558607655
rtibia 57.33193344506307
rfoot 3.80041808945781 -6.473246159762753
rtoes -5.306445472335502
lowerback 14.36373043854819 0.639543059407498 -0.9069712337910081
upperback -0.31568024265032635 1.6347533584788998 0.39911671426885587
thorax -8.180250898882841 0.8957650847048073 1.2139356583662924
lowerneck -18.82374886288606 -4.496879143647268 -2.3361572159723263
upperneck 13.533290106041887 -5.8603946369245 3.6370467462850624
head 7.420413079657274 -2.8024418093086787 0.805076815726412
lclavicle 3.0724827264545893e-16 -4.3067221206564905e-16
lhumerus -40.965412669308215 -16.105634849369167 97.85597885193798
lradius 108.94332116251985
lwrist 32.15647120954541
lhand -25.773543661479977 2.972233391033086
lfingers 7.125020000000001
lthumb 0.2667045594468435 32.521320098565305
rclavicle 3.0728743657241976e-16 -4.3064985682852227e-16
rhumerus -42.116824806945715 9.56725661162301 -97.31329639568368
rradius 102.5504446070921
rwrist -19.17911258752007
rhand -18.507391271765986 37.55335441682143
rfingers 7.125020000000001
rthumb 7.847586310609745 7.664582868073033
66
root 0.20121917040373624 17.029586646877743 25.492459227993102 0.9150327947886785 4.020630915863427 -0.37548353953003777
lfemur -12.701074664100947 -1.450696866250455 -24.43404770100447
ltibia 41.39765214027452
lfoot 1.1413152338783714 -9.200683173425482
ltoes -10.703283483756548
rfemur -21.36604504338704 1.6590576485497814 25.255567303211087
rtibia 57.12411714733797
rfoot 3.247450612867992 -6.117839051361134
rtoes -5.689714605252601
lowerback 14.400982283430531 0.41740446802631337 -1.1861223726646932
upperback -0.2907067732805764 1.2172311221051493 0.19943784519934993
thorax -8.27139238634538 0.7215777525665611 1.3163171749400977
lowerneck -18.90480728183671 -4.357361422483151 -2.3356243013953217
upperneck 13.596861867931757 -5.640060712383973 3.549882581921026
head 7.42610296428654 -2.727922227027983 0.8253183439831567
lclavicle 3.0724827264545893e-16 -4.3067221206564905e-16
lhumerus -39.65881979244378 -15.930943346265192 97.73825171078393
lradius 109.18871327062656
lwrist 32.170156461027375
lhand -25.83483632461437 3.0588012925226646
lfingers 7.125020000000001
lthumb 0.3003727184947418 32.604271211293465
rclavicle 3.0728743657241976e-16 -4.3064985682852227e-16
rhumerus -43.7246455423764 8.92171194471116 -97.54828536858143
rradius 102.6825695918468
rwrist -19.133390109879347
rhand -18.51178854226801 37.54614258216814
rfingers 7.125020000000001
rthumb 7.8447720111505985 7.671679964494626
